<svg width="106" height="27" viewBox="0 0 106 27" fill="none" xmlns="http://www.w3.org/2000/svg">
<path d="M88.3357 5.204L89.3257 2.322C90.1617 2.806 91.2397 3.114 92.9117 3.114H95.5297V6.018H92.1857C90.5137 6.018 89.1717 5.732 88.3357 5.204ZM101.866 3.004H105.386V14.818H101.866V3.004ZM97.4877 3.114H101.008V14.818H97.4877V11.606H96.2777V8.416H97.4877V3.114ZM95.8157 6.634V9.648H93.9897V9.89C93.9897 10.704 94.4517 11.276 96.5417 12.002L95.7937 14.884C94.1217 14.51 92.9337 13.938 92.1197 13.3C91.1957 14.026 89.6777 14.708 87.8077 15.038L87.2797 12.046C89.6997 11.298 90.2937 10.682 90.2937 9.912V9.648H87.7197V6.634H95.8157ZM101.536 18.998H88.5117V15.588H105.386V22.518H101.536V18.998Z" fill="#3882D3"/>
<path d="M71.1671 4.61L72.3111 1.992C73.4991 2.52 75.2811 2.784 76.6231 2.784H84.5211V5.402H75.7431C74.4451 5.402 72.4651 5.226 71.1671 4.61ZM69.6931 8.592V5.974H86.0171V8.592H79.9451C80.4291 8.856 82.8711 9.252 86.6111 9.384L86.4351 11.892C82.5411 11.826 79.0871 11.254 77.8771 10.726C76.6671 11.254 73.2131 11.826 69.3191 11.892L69.1431 9.384C72.8831 9.252 75.3251 8.856 75.8091 8.592H69.6931ZM69.1431 15.016V12.354H86.5451V15.016H79.8571V15.566H85.9071V20.054H73.4111V20.494H86.1271V22.518H69.6711V18.03H82.1671V17.59H69.7151V15.566H75.8531V15.016H69.1431Z" fill="#3882D3"/>
<path d="M67.3746 6.898H54.9226V9.406H67.4405V12.86H51.0725V3.444H67.3746V6.898ZM67.9026 14.224V17.854H61.2146V22.408H57.1886V17.854H50.5005V14.224H67.9026Z" fill="#3882D3"/>
<path d="M32.386 3.444H48.732V15.236H42.55V18.008H49.26V21.638H31.858V18.008H38.59V15.236H32.386V3.444ZM36.236 11.716H44.882V6.964H36.236V11.716Z" fill="#3882D3"/>
<path d="M26.4375 13.5C26.4375 14.558 25.1107 15.43 24.8449 16.4053C24.5707 17.4136 25.2647 18.8187 24.7437 19.701C24.2142 20.5978 22.6216 20.7053 21.8791 21.4326C21.1366 22.16 21.027 23.7201 20.1115 24.2387C19.2108 24.7491 17.7764 24.0693 16.747 24.3379C15.7514 24.5982 14.8612 25.898 13.7812 25.898C12.7012 25.898 11.8111 24.5982 10.8155 24.3379C9.78609 24.0693 8.35172 24.7491 7.45102 24.2387C6.53555 23.7201 6.42586 22.16 5.68336 21.4326C4.94086 20.7053 3.34828 20.5978 2.81883 19.701C2.29781 18.8187 2.9918 17.4136 2.71758 16.4053C2.4518 15.43 1.125 14.558 1.125 13.5C1.125 12.442 2.4518 11.5701 2.71758 10.5947C2.9918 9.58638 2.29781 8.18128 2.81883 7.29896C3.34828 6.40217 4.94086 6.29472 5.68336 5.56738C6.42586 4.84003 6.53555 3.27995 7.45102 2.7613C8.35172 2.25092 9.78609 2.93074 10.8155 2.66212C11.8111 2.40176 12.7012 1.10204 13.7812 1.10204C14.8612 1.10204 15.7514 2.40176 16.747 2.66212C17.7764 2.93074 19.2108 2.25092 20.1115 2.7613C21.027 3.27995 21.1366 4.84003 21.8791 5.56738C22.6216 6.29472 24.2142 6.40217 24.7437 7.29896C25.2647 8.18128 24.5707 9.58638 24.8449 10.5947C25.1107 11.5701 26.4375 12.442 26.4375 13.5Z" fill="#3882D3"/>
<path d="M17.1576 9.72848L12.3398 14.5463L9.84233 12.0509C9.30023 11.5088 8.42062 11.5088 7.87851 12.0509C7.3364 12.593 7.3364 13.4726 7.87851 14.0147L11.3822 17.5184C11.9095 18.0457 12.7659 18.0457 13.2933 17.5184L19.1194 11.6923C19.6615 11.1502 19.6615 10.2706 19.1194 9.72848C18.5773 9.18637 17.6998 9.18637 17.1576 9.72848Z" fill="white"/>
</svg>
